<?xml version="1.0" encoding="utf-8"?>
<!-- Generator: Adobe Illustrator 21.1.0, SVG Export Plug-In . SVG Version: 6.00 Build 0)  -->
<svg version="1.1" id="Layer_1" xmlns="http://www.w3.org/2000/svg" xmlns:xlink="http://www.w3.org/1999/xlink" x="0px" y="0px"
	 viewBox="0 0 987.7 987.2" style="enable-background:new 0 0 987.7 987.2;" xml:space="preserve">
<style type="text/css">
	.st0{fill:#CE2027;stroke:#000000;stroke-miterlimit:10;}
	.st1{fill:#FFFFFF;stroke:#000000;stroke-miterlimit:10;}
	.st2{display:none;}
	.st3{display:inline;}
</style>
<rect x="0.5" y="0.5" class="st0" width="986.7" height="986.7"/>
<circle class="st1" cx="493.8" cy="493.8" r="343.7"/>
<g>
	<path d="M384.1,286.6c23.3-25.4,55.9-38.4,97.8-38.8v-41.6h29.7v41c41.5,2.9,73.4,15.1,95.6,36.7c22.2,21.5,33.8,50,34.9,85.4
		h-54.8c-1.5-15.9-5.7-29.5-12.8-41c-13.1-21.1-34.1-32.1-62.9-33.2v152.4c48.4,13.6,81.2,26.3,98.6,38.2
		c28.2,19.6,42.2,48.6,42.2,87c0,55.5-18,94.9-54.1,118.3c-20,12.9-48.9,21.5-86.7,25.7v60.7h-29.7v-60.7
		c-60.7-4-101.9-25.5-123.6-64.5c-11.9-21.1-17.8-49.5-17.8-85.4h55.4c1.7,28.6,6.2,49.4,13.6,62.6c13,23.6,37.2,36.8,72.5,39.7
		V498.4c-45.3-8.6-78.7-22.8-100.3-42.9c-21.6-20-32.4-47.8-32.4-83.2C349.2,340.6,360.8,312,384.1,286.6z M426.2,417.1
		c13.8,11.7,32.3,19.8,55.7,24.4V294.4c-27.6,1-47.2,9.4-58.8,25c-11.7,15.6-17.5,32-17.5,49.1C405.5,389.2,412.4,405.4,426.2,417.1
		z M585.4,631.4c7.1-12.5,10.6-27,10.6-43.5c0-26.1-9.6-45.9-28.8-59.5c-11.1-7.9-29.6-15.4-55.7-22.5v164.6
		C547.3,668.9,571.9,655.8,585.4,631.4z"/>
</g>
<text transform="matrix(1 0 0 1 13.2866 1051.3862)" class="st2" style="font-family:'ArialMT'; font-size:60px;">www.blackfuturesupercomputer.com</text>
</svg>
