<?xml version="1.0" encoding="utf-8"?>
<!-- Generator: Adobe Illustrator 21.1.0, SVG Export Plug-In . SVG Version: 6.00 Build 0)  -->
<svg version="1.0" id="Layer_1" xmlns="http://www.w3.org/2000/svg" xmlns:xlink="http://www.w3.org/1999/xlink" x="0px" y="0px"
	 viewBox="0 0 199.5 211.5" style="enable-background:new 0 0 199.5 211.5;" xml:space="preserve">
<style type="text/css">
	.st0{clip-path:url(#SVGID_2_);fill:#E24747;}
	.st1{clip-path:url(#SVGID_2_);}
	.st2{clip-path:url(#SVGID_2_);fill:#FFFFFF;}
	.st3{fill:#FFFFFF;}
</style>
<g>
	<defs>
		<circle id="SVGID_1_" cx="101" cy="105.5" r="86"/>
	</defs>
	<clipPath id="SVGID_2_">
		<use xlink:href="#SVGID_1_"  style="overflow:visible;"/>
	</clipPath>
	<path class="st0" d="M127.8,115.4c-1.7-2.8-4-5.2-6.7-7.1c-2.7-1.9-5.9-3.5-9.3-4.8c-2.9-1.1-5.9-2.1-8.9-3V68.3
		c0.9,0.2,1.7,0.4,2.5,0.7c2.4,0.8,4.5,1.9,6.3,3.4c1.9,1.5,3.4,3.4,4.5,5.6c1.1,2.2,1.8,4.8,2.1,7.6h9.6c-0.2-2.9-0.8-5.8-1.8-8.9
		c-1.1-3.1-2.7-5.9-5-8.4c-2.3-2.5-5.3-4.6-9.1-6.2c-2.6-1.1-5.6-1.9-9.1-2.2V45.5h-8v14.2c-3.2,0.2-6.1,0.6-8.8,1.4
		c-3.5,1-6.6,2.4-9.2,4.3c-2.6,1.9-4.6,4.2-6,7c-1.4,2.8-2.2,6-2.2,9.6c0,4.4,0.9,8,2.7,10.9c1.8,2.9,4.1,5.3,6.9,7.3
		c2.8,2,6,3.6,9.5,4.9c2.4,0.9,4.7,1.7,7.1,2.4v35.7c-1.8-0.3-3.4-0.7-5-1.3c-2.7-1-5.1-2.5-7.1-4.4c-2-1.9-3.6-4.2-4.8-6.8
		c-1.2-2.7-1.9-5.5-2.2-8.7h-9.6c0.1,4.6,1.1,8.7,3,12.4c1.9,3.7,4.4,6.8,7.4,9.4c3,2.6,6.5,4.5,10.3,5.9c2.6,0.9,5.2,1.5,7.9,1.8
		v11.8h8v-11.7c3.1-0.2,5.9-0.7,8.6-1.5c3.8-1.1,7.2-2.7,10-4.9c2.8-2.2,5-4.9,6.6-8.1c1.5-3.2,2.3-7,2.3-11.2
		C130.3,121.8,129.5,118.2,127.8,115.4z M92.6,97.1c-2.8-1-5.2-2.1-7.4-3.5c-2.2-1.4-3.9-3-5.2-4.8c-1.3-1.9-2-4.1-2-6.8
		c0-2.6,0.6-4.8,1.7-6.6c1.1-1.8,2.6-3.2,4.5-4.4c1.8-1.1,4-2,6.3-2.5c1.4-0.3,2.8-0.5,4.3-0.6v29.9C94.1,97.6,93.3,97.3,92.6,97.1z
		 M119.2,134.2c-1.2,2.2-2.8,4-4.9,5.4c-2,1.4-4.4,2.4-7.1,3c-1.4,0.3-2.9,0.6-4.4,0.7v-33.3c1.2,0.4,2.5,0.8,3.7,1.3
		c2.7,1,5.2,2.1,7.3,3.4c2.2,1.3,3.9,2.9,5.2,4.7c1.3,1.8,2,4,2,6.6C121,129.3,120.4,132,119.2,134.2z"/>
	<path class="st0" d="M0,5.8v199.5h199.5V5.8H0z M98.8,179c-39.8,0-72-32.2-72-72s32.2-72,72-72c39.8,0,72,32.2,72,72
		S138.6,179,98.8,179z"/>
	<path class="st1" d="M98.8,35c-39.8,0-72,32.2-72,72s32.2,72,72,72c39.8,0,72-32.2,72-72S138.6,35,98.8,35z M128,137.3
		c-1.6,3.2-3.8,5.9-6.6,8.1c-2.8,2.2-6.2,3.8-10,4.9c-2.7,0.8-5.6,1.3-8.6,1.5v11.7h-8v-11.8c-2.7-0.3-5.4-0.9-7.9-1.8
		c-3.9-1.4-7.3-3.4-10.3-5.9c-3-2.6-5.5-5.7-7.4-9.4c-1.9-3.7-2.9-7.8-3-12.4h9.6c0.2,3.1,1,6,2.2,8.7c1.2,2.7,2.8,4.9,4.8,6.8
		c2,1.9,4.4,3.4,7.1,4.4c1.6,0.6,3.2,1,5,1.3v-35.7c-2.4-0.7-4.8-1.6-7.1-2.4c-3.5-1.3-6.6-3-9.5-4.9c-2.8-2-5.1-4.4-6.9-7.3
		c-1.8-2.9-2.7-6.5-2.7-10.9c0-3.6,0.7-6.8,2.2-9.6c1.4-2.8,3.4-5.1,6-7c2.6-1.9,5.6-3.3,9.2-4.3c2.7-0.7,5.6-1.2,8.8-1.4V45.5h8
		v14.4c3.5,0.4,6.5,1.1,9.1,2.2c3.8,1.6,6.8,3.7,9.1,6.2c2.3,2.5,3.9,5.3,5,8.4c1,3.1,1.7,6,1.8,8.9h-9.6c-0.2-2.9-0.9-5.4-2.1-7.6
		c-1.1-2.2-2.6-4.1-4.5-5.6c-1.8-1.5-3.9-2.6-6.3-3.4c-0.8-0.3-1.6-0.5-2.5-0.7v32.1c3,0.9,5.9,1.9,8.9,3c3.5,1.3,6.6,2.9,9.3,4.8
		c2.7,1.9,5,4.3,6.7,7.1c1.7,2.8,2.6,6.4,2.6,10.7C130.3,130.4,129.6,134.1,128,137.3z"/>
	<path class="st1" d="M94.8,68v29.9c-0.8-0.2-1.5-0.5-2.2-0.8c-2.8-1-5.2-2.1-7.4-3.5c-2.2-1.4-3.9-3-5.2-4.8c-1.3-1.9-2-4.1-2-6.8
		c0-2.6,0.6-4.8,1.7-6.6c1.1-1.8,2.6-3.2,4.5-4.4c1.8-1.1,4-2,6.3-2.5C92,68.3,93.4,68.1,94.8,68z"/>
	<path class="st2" d="M130.7,116.5c-1.9-3.1-4.4-5.7-7.4-7.9c-3-2.1-6.4-3.9-10.3-5.3c-3.2-1.2-6.5-2.3-9.8-3.3V64.7
		c0.9,0.2,1.9,0.4,2.8,0.7c2.6,0.8,4.9,2.1,6.9,3.8c2,1.7,3.7,3.7,4.9,6.2c1.2,2.5,2,5.3,2.3,8.4h10.6c-0.2-3.1-0.9-6.4-2-9.8
		c-1.2-3.4-3-6.5-5.5-9.2c-2.5-2.8-5.8-5.1-10-6.9c-2.8-1.2-6.2-2-10-2.4V39.6h-8.8v15.7c-3.5,0.2-6.7,0.7-9.7,1.5
		c-3.9,1.1-7.2,2.6-10.1,4.7c-2.8,2.1-5,4.7-6.6,7.7c-1.6,3.1-2.4,6.6-2.4,10.6c0,4.8,1,8.8,2.9,12c1.9,3.2,4.5,5.9,7.6,8.1
		c3.1,2.2,6.6,4,10.4,5.4c2.6,1,5.2,1.9,7.8,2.7v39.3c-1.9-0.3-3.7-0.7-5.5-1.4c-3-1.2-5.6-2.8-7.8-4.9c-2.2-2.1-4-4.6-5.3-7.5
		c-1.3-2.9-2.1-6.1-2.4-9.5H63c0.1,5,1.2,9.5,3.3,13.6c2.1,4.1,4.8,7.5,8.1,10.4c3.3,2.8,7.1,5,11.4,6.5c2.8,1,5.8,1.7,8.7,2v13h8.8
		v-12.9c3.4-0.2,6.5-0.8,9.5-1.7c4.2-1.2,7.9-3,11-5.4c3.1-2.4,5.5-5.4,7.2-8.9c1.7-3.5,2.6-7.6,2.6-12.4
		C133.6,123.5,132.6,119.6,130.7,116.5z M92,96.3c-3-1.1-5.8-2.3-8.1-3.8c-2.4-1.5-4.3-3.2-5.7-5.3c-1.4-2-2.2-4.5-2.2-7.5
		c0-2.9,0.6-5.3,1.9-7.2c1.2-1.9,2.9-3.5,4.9-4.8c2-1.3,4.4-2.2,6.9-2.7c1.6-0.3,3.1-0.6,4.7-0.7v32.9C93.7,96.9,92.8,96.6,92,96.3z
		 M121.3,137.2c-1.3,2.5-3.1,4.4-5.4,6c-2.2,1.5-4.8,2.6-7.8,3.3c-1.6,0.4-3.2,0.6-4.8,0.8v-36.6c1.4,0.4,2.7,0.9,4.1,1.4
		c3,1.1,5.7,2.3,8.1,3.8c2.4,1.4,4.3,3.1,5.7,5.1c1.4,2,2.2,4.4,2.2,7.3C123.3,131.7,122.6,134.7,121.3,137.2z"/>
	<path class="st1" d="M121,126.1c0,3.2-0.6,5.9-1.8,8.1c-1.2,2.2-2.8,4-4.9,5.4c-2,1.4-4.4,2.4-7.1,3c-1.4,0.3-2.9,0.6-4.4,0.7
		v-33.3c1.2,0.4,2.5,0.8,3.7,1.3c2.7,1,5.2,2.1,7.3,3.4c2.2,1.3,3.9,2.9,5.2,4.7C120.3,121.2,121,123.5,121,126.1z"/>
	<g class="st1">
		<rect x="91.7" class="st3" width="14.3" height="211.5"/>
	</g>
</g>
</svg>
