<?xml version="1.0" encoding="utf-8"?>
<!-- Generator: Adobe Illustrator 21.1.0, SVG Export Plug-In . SVG Version: 6.00 Build 0)  -->
<svg version="1.1" id="Layer_1" xmlns="http://www.w3.org/2000/svg" xmlns:xlink="http://www.w3.org/1999/xlink" x="0px" y="0px"
	 viewBox="0 0 158.3 66.4" style="enable-background:new 0 0 158.3 66.4;" xml:space="preserve">
<g>
	<path d="M28.1,66.4l-16-52.1h-0.4c0.6,10.6,0.9,17.7,0.9,21.2v30.9H0V0h19.2l15.7,50.8h0.3L51.8,0H71v66.4H57.9V35
		c0-1.5,0-3.2,0.1-5.1c0-1.9,0.2-7.1,0.6-15.4h-0.4L41,66.4H28.1z"/>
	<path d="M126.7,66.4h-13.8V36.7c0-3.7-0.6-6.4-1.8-8.2c-1.2-1.8-3.2-2.7-5.8-2.7c-3.5,0-6.1,1.3-7.7,3.9c-1.6,2.6-2.4,6.9-2.4,12.9
		v23.9H81.2V15.6h10.6l1.9,6.5h0.8c1.4-2.3,3.3-4.2,5.9-5.5c2.6-1.3,5.5-2,8.9-2c7.6,0,12.7,2.5,15.4,7.4h1.2c1.4-2.4,3.4-4.2,6-5.5
		c2.6-1.3,5.6-2,9-2c5.8,0,10.1,1.5,13.1,4.4c3,3,4.4,7.7,4.4,14.2v33.1h-13.9V36.7c0-3.7-0.6-6.4-1.8-8.2c-1.2-1.8-3.2-2.7-5.8-2.7
		c-3.4,0-5.9,1.2-7.6,3.6c-1.7,2.4-2.5,6.3-2.5,11.5V66.4z"/>
</g>
</svg>
